<svg viewBox="0 0 80 80" fill="none" xmlns="http://www.w3.org/2000/svg" width="40" height="40"><defs><clipPath id="vc512476473"><circle cx="40" cy="40" r="40"/></clipPath></defs><g clip-path="url(#vc512476473)"><rect width="80" height="80" fill="#141824"/><line x1="10" y1="14" x2="70" y2="14" stroke="rgba(255,255,255,0.06)" stroke-width="0.5"/><line x1="10" y1="31.333333333333332" x2="70" y2="31.333333333333332" stroke="rgba(255,255,255,0.06)" stroke-width="0.5"/><line x1="10" y1="48.666666666666664" x2="70" y2="48.666666666666664" stroke="rgba(255,255,255,0.06)" stroke-width="0.5"/><line x1="10" y1="66" x2="70" y2="66" stroke="rgba(255,255,255,0.06)" stroke-width="0.5"/><line x1="10" y1="68" x2="70" y2="68" stroke="rgba(255,255,255,0.12)" stroke-width="0.5"/><rect x="10.0" y="16.0" width="6.0" height="52.0" rx="2.5" fill="#f59e0b" opacity="0.55"/><rect x="10.0" y="16.0" width="6.0" height="3" rx="2.5" fill="#f59e0b" opacity="0.9"/><rect x="19.0" y="17.6" width="6.0" height="50.4" rx="2.5" fill="#06b6d4" opacity="0.61"/><rect x="19.0" y="17.6" width="6.0" height="3" rx="2.5" fill="#06b6d4" opacity="0.9"/><rect x="28.0" y="16.0" width="6.0" height="52.0" rx="2.5" fill="#ec4899" opacity="0.66"/><rect x="28.0" y="16.0" width="6.0" height="3" rx="2.5" fill="#ec4899" opacity="0.9"/><rect x="37.0" y="37.2" width="6.0" height="30.8" rx="2.5" fill="#8b5cf6" opacity="0.72"/><rect x="37.0" y="37.2" width="6.0" height="3" rx="2.5" fill="#8b5cf6" opacity="0.9"/><rect x="46.0" y="16.0" width="6.0" height="52.0" rx="2.5" fill="#3b82f6" opacity="0.78"/><rect x="46.0" y="16.0" width="6.0" height="3" rx="2.5" fill="#3b82f6" opacity="0.9"/><rect x="55.0" y="35.0" width="6.0" height="33.0" rx="2.5" fill="#f59e0b" opacity="0.84"/><rect x="55.0" y="35.0" width="6.0" height="3" rx="2.5" fill="#f59e0b" opacity="0.9"/><rect x="64.0" y="48.5" width="6.0" height="19.5" rx="2.5" fill="#06b6d4" opacity="0.89"/><rect x="64.0" y="48.5" width="6.0" height="3" rx="2.5" fill="#06b6d4" opacity="0.9"/><line x1="10" y1="68" x2="10" y2="65" stroke="rgba(255,255,255,0.2)" stroke-width="0.5"/><line x1="70" y1="68" x2="70" y2="65" stroke="rgba(255,255,255,0.2)" stroke-width="0.5"/><g opacity="0.85"><circle cx="40" cy="40" r="16" fill="rgba(255,255,255,0.06)"/><circle cx="28.0" cy="31.0" r="1.9" fill="rgba(255,255,255,0.45)"/><circle cx="52.0" cy="31.0" r="1.9" fill="rgba(255,255,255,0.45)"/><path d="M34.0 47.0 Q40 51.8 46.0 47.0" fill="none" stroke="rgba(255,255,255,0.45)" stroke-width="1.5" stroke-linecap="round"/></g></g></svg>