<svg viewBox="0 0 80 80" fill="none" xmlns="http://www.w3.org/2000/svg" width="40" height="40"><defs><clipPath id="vc645088871"><circle cx="40" cy="40" r="40"/></clipPath></defs><g clip-path="url(#vc645088871)"><rect width="80" height="80" fill="#141824"/><polygon points="8.0,8.0 72.0,8.0 64.0,19.7 13.8,19.7" fill="#06b6d4" opacity="0.85"/><polygon points="13.8,19.7 64.0,19.7 52.2,28.8 23.5,28.8" fill="#f59e0b" opacity="0.77"/><line x1="13.8" y1="19.7" x2="64.0" y2="19.7" stroke="#141824" stroke-width="1.5"/><polygon points="23.5,28.8 52.2,28.8 47.0,40.9 26.5,40.9" fill="#3b82f6" opacity="0.69"/><line x1="23.5" y1="28.8" x2="52.2" y2="28.8" stroke="#141824" stroke-width="1.5"/><polygon points="26.5,40.9 47.0,40.9 42.3,59.4 29.1,59.4" fill="#8b5cf6" opacity="0.61"/><line x1="26.5" y1="40.9" x2="47.0" y2="40.9" stroke="#141824" stroke-width="1.5"/><polygon points="29.1,59.4 42.3,59.4 38.0,72.0 31.2,72.0" fill="#ec4899" opacity="0.53"/><line x1="29.1" y1="59.4" x2="42.3" y2="59.4" stroke="#141824" stroke-width="1.5"/><line x1="8" y1="8" x2="8" y2="72.0" stroke="rgba(255,255,255,0.04)" stroke-width="0.5"/><line x1="72" y1="8" x2="72" y2="72.0" stroke="rgba(255,255,255,0.04)" stroke-width="0.5"/><g opacity="0.85"><circle cx="40" cy="40" r="16" fill="rgba(255,255,255,0.06)"/><circle cx="28.0" cy="32.0" r="1.9" fill="rgba(255,255,255,0.45)"/><circle cx="52.0" cy="32.0" r="1.9" fill="rgba(255,255,255,0.45)"/><path d="M32.0 46.0 Q40 50.8 48.0 46.0" fill="none" stroke="rgba(255,255,255,0.45)" stroke-width="1.5" stroke-linecap="round"/></g></g></svg>