<svg viewBox="0 0 80 80" fill="none" xmlns="http://www.w3.org/2000/svg" width="40" height="40"><defs><clipPath id="vc645088871"><circle cx="40" cy="40" r="40"/></clipPath></defs><g clip-path="url(#vc645088871)"><rect width="80" height="80" fill="#141824"/><rect x="2.5" y="2.5" width="8.6" height="8.6" rx="2" fill="#06b6d4" opacity="0.79"/><rect x="13.6" y="2.5" width="8.6" height="8.6" rx="2" fill="#06b6d4" opacity="0.88"/><rect x="24.6" y="2.5" width="8.6" height="8.6" rx="2" fill="#f59e0b" opacity="0.58"/><rect x="35.7" y="2.5" width="8.6" height="8.6" rx="2" fill="#f59e0b" opacity="0.35"/><rect x="46.8" y="2.5" width="8.6" height="8.6" rx="2" fill="#f59e0b" opacity="0.26"/><rect x="57.9" y="2.5" width="8.6" height="8.6" rx="2" fill="#f59e0b" opacity="0.17"/><rect x="68.9" y="2.5" width="8.6" height="8.6" rx="2" fill="#06b6d4" opacity="0.55"/><rect x="2.5" y="13.6" width="8.6" height="8.6" rx="2" fill="#f59e0b" opacity="0.39"/><rect x="13.6" y="13.6" width="8.6" height="8.6" rx="2" fill="#f59e0b" opacity="0.30"/><rect x="24.6" y="13.6" width="8.6" height="8.6" rx="2" fill="#f59e0b" opacity="0.21"/><rect x="35.7" y="13.6" width="8.6" height="8.6" rx="2" fill="#06b6d4" opacity="0.51"/><rect x="46.8" y="13.6" width="8.6" height="8.6" rx="2" fill="#f59e0b" opacity="0.42"/><rect x="57.9" y="13.6" width="8.6" height="8.6" rx="2" fill="#f59e0b" opacity="0.33"/><rect x="68.9" y="13.6" width="8.6" height="8.6" rx="2" fill="#f59e0b" opacity="0.24"/><rect x="2.5" y="24.6" width="8.6" height="8.6" rx="2" fill="#f59e0b" opacity="0.15"/><rect x="13.6" y="24.6" width="8.6" height="8.6" rx="2" fill="#f59e0b" opacity="0.45"/><rect x="24.6" y="24.6" width="8.6" height="8.6" rx="2" fill="#f59e0b" opacity="0.36"/><rect x="35.7" y="24.6" width="8.6" height="8.6" rx="2" fill="#f59e0b" opacity="0.27"/><rect x="46.8" y="24.6" width="8.6" height="8.6" rx="2" fill="#f59e0b" opacity="0.18"/><rect x="57.9" y="24.6" width="8.6" height="8.6" rx="2" fill="#f59e0b" opacity="0.48"/><rect x="68.9" y="24.6" width="8.6" height="8.6" rx="2" fill="#06b6d4" opacity="0.39"/><rect x="2.5" y="35.7" width="8.6" height="8.6" rx="2" fill="#06b6d4" opacity="0.30"/><rect x="13.6" y="35.7" width="8.6" height="8.6" rx="2" fill="#f59e0b" opacity="0.21"/><rect x="24.6" y="35.7" width="8.6" height="8.6" rx="2" fill="#f59e0b" opacity="0.51"/><rect x="35.7" y="35.7" width="8.6" height="8.6" rx="2" fill="#f59e0b" opacity="0.42"/><rect x="46.8" y="35.7" width="8.6" height="8.6" rx="2" fill="#f59e0b" opacity="0.33"/><rect x="57.9" y="35.7" width="8.6" height="8.6" rx="2" fill="#06b6d4" opacity="0.24"/><rect x="68.9" y="35.7" width="8.6" height="8.6" rx="2" fill="#f59e0b" opacity="0.15"/><rect x="2.5" y="46.8" width="8.6" height="8.6" rx="2" fill="#f59e0b" opacity="0.45"/><rect x="13.6" y="46.8" width="8.6" height="8.6" rx="2" fill="#f59e0b" opacity="0.36"/><rect x="24.6" y="46.8" width="8.6" height="8.6" rx="2" fill="#06b6d4" opacity="0.27"/><rect x="35.7" y="46.8" width="8.6" height="8.6" rx="2" fill="#f59e0b" opacity="0.18"/><rect x="46.8" y="46.8" width="8.6" height="8.6" rx="2" fill="#06b6d4" opacity="0.48"/><rect x="57.9" y="46.8" width="8.6" height="8.6" rx="2" fill="#f59e0b" opacity="0.39"/><rect x="68.9" y="46.8" width="8.6" height="8.6" rx="2" fill="#f59e0b" opacity="0.30"/><rect x="2.5" y="57.9" width="8.6" height="8.6" rx="2" fill="#f59e0b" opacity="0.21"/><rect x="13.6" y="57.9" width="8.6" height="8.6" rx="2" fill="#f59e0b" opacity="0.12"/><rect x="24.6" y="57.9" width="8.6" height="8.6" rx="2" fill="#06b6d4" opacity="0.42"/><rect x="35.7" y="57.9" width="8.6" height="8.6" rx="2" fill="#f59e0b" opacity="0.33"/><rect x="46.8" y="57.9" width="8.6" height="8.6" rx="2" fill="#f59e0b" opacity="0.24"/><rect x="57.9" y="57.9" width="8.6" height="8.6" rx="2" fill="#06b6d4" opacity="0.16"/><rect x="68.9" y="57.9" width="8.6" height="8.6" rx="2" fill="#06b6d4" opacity="0.46"/><rect x="2.5" y="68.9" width="8.6" height="8.6" rx="2" fill="#06b6d4" opacity="0.37"/><rect x="13.6" y="68.9" width="8.6" height="8.6" rx="2" fill="#f59e0b" opacity="0.28"/><rect x="24.6" y="68.9" width="8.6" height="8.6" rx="2" fill="#f59e0b" opacity="0.19"/><rect x="35.7" y="68.9" width="8.6" height="8.6" rx="2" fill="#f59e0b" opacity="0.49"/><rect x="46.8" y="68.9" width="8.6" height="8.6" rx="2" fill="#06b6d4" opacity="0.40"/><rect x="57.9" y="68.9" width="8.6" height="8.6" rx="2" fill="#06b6d4" opacity="0.31"/><rect x="68.9" y="68.9" width="8.6" height="8.6" rx="2" fill="#f59e0b" opacity="0.22"/><rect x="2.5" y="2.5" width="8.6" height="8.6" rx="2" fill="none" stroke="rgba(255,255,255,0.25)" stroke-width="0.8"/><g opacity="0.85"><circle cx="40" cy="40" r="16" fill="rgba(255,255,255,0.06)"/><circle cx="28.0" cy="32.0" r="1.9" fill="rgba(255,255,255,0.45)"/><circle cx="52.0" cy="32.0" r="1.9" fill="rgba(255,255,255,0.45)"/><path d="M32.0 46.0 Q40 50.8 48.0 46.0" fill="none" stroke="rgba(255,255,255,0.45)" stroke-width="1.5" stroke-linecap="round"/></g></g></svg>