<svg viewBox="0 0 80 80" fill="none" xmlns="http://www.w3.org/2000/svg" width="40" height="40"><defs><clipPath id="vc645088871"><circle cx="40" cy="40" r="40"/></clipPath></defs><g clip-path="url(#vc645088871)"><rect width="80" height="80" fill="#141824"/><line x1="12" y1="12.0" x2="68" y2="12.0" stroke="rgba(255,255,255,0.06)" stroke-width="0.5"/><line x1="12" y1="30.7" x2="68" y2="30.7" stroke="rgba(255,255,255,0.06)" stroke-width="0.5"/><line x1="12" y1="49.3" x2="68" y2="49.3" stroke="rgba(255,255,255,0.06)" stroke-width="0.5"/><line x1="12" y1="68.0" x2="68" y2="68.0" stroke="rgba(255,255,255,0.06)" stroke-width="0.5"/><path d="M12.0,23.9 L20.0,51.8 L28.0,28.6 L36.0,47.1 L44.0,58.4 L52.0,42.4 L60.0,14.8 L68.0,37.6 " fill="none" stroke="#06b6d4" stroke-width="1.8" stroke-linecap="round" stroke-linejoin="round" opacity="0.9"/><circle cx="12.0" cy="23.9" r="2.5" fill="#141824"/><circle cx="12.0" cy="23.9" r="1.5" fill="#06b6d4" opacity="0.9"/><circle cx="20.0" cy="51.8" r="2.5" fill="#141824"/><circle cx="20.0" cy="51.8" r="1.5" fill="#06b6d4" opacity="0.9"/><circle cx="28.0" cy="28.6" r="2.5" fill="#141824"/><circle cx="28.0" cy="28.6" r="1.5" fill="#06b6d4" opacity="0.9"/><circle cx="36.0" cy="47.1" r="2.5" fill="#141824"/><circle cx="36.0" cy="47.1" r="1.5" fill="#06b6d4" opacity="0.9"/><circle cx="44.0" cy="58.4" r="2.5" fill="#141824"/><circle cx="44.0" cy="58.4" r="1.5" fill="#06b6d4" opacity="0.9"/><circle cx="52.0" cy="42.4" r="2.5" fill="#141824"/><circle cx="52.0" cy="42.4" r="1.5" fill="#06b6d4" opacity="0.9"/><circle cx="60.0" cy="14.8" r="2.5" fill="#141824"/><circle cx="60.0" cy="14.8" r="1.5" fill="#06b6d4" opacity="0.9"/><circle cx="68.0" cy="37.6" r="2.5" fill="#141824"/><circle cx="68.0" cy="37.6" r="1.5" fill="#06b6d4" opacity="0.9"/><path d="M12.0,30.7 L20.0,51.0 L28.0,35.7 L36.0,49.4 L44.0,60.9 L52.0,48.8 L60.0,25.9 L68.0,43.8 " fill="none" stroke="#f59e0b" stroke-width="1" stroke-linecap="round" stroke-linejoin="round" opacity="0.4" stroke-dasharray="3,3"/><g opacity="0.85"><circle cx="40" cy="40" r="16" fill="rgba(255,255,255,0.06)"/><circle cx="28.0" cy="32.0" r="1.9" fill="rgba(255,255,255,0.45)"/><circle cx="52.0" cy="32.0" r="1.9" fill="rgba(255,255,255,0.45)"/><path d="M32.0 46.0 Q40 50.8 48.0 46.0" fill="none" stroke="rgba(255,255,255,0.45)" stroke-width="1.5" stroke-linecap="round"/></g></g></svg>