<svg viewBox="0 0 80 80" fill="none" xmlns="http://www.w3.org/2000/svg" width="40" height="40"><defs><clipPath id="vc645088871"><circle cx="40" cy="40" r="40"/></clipPath></defs><g clip-path="url(#vc645088871)"><rect width="80" height="80" fill="#141824"/><circle cx="40" cy="40" r="30" fill="none" stroke="rgba(255,255,255,0.06)" stroke-width="9"/><circle cx="40" cy="40" r="30" fill="none" stroke="#06b6d4" stroke-width="9" stroke-dasharray="56.8 131.7" stroke-dashoffset="0.0" stroke-linecap="round" transform="rotate(-90 40 40)" opacity="0.85"/><circle cx="40" cy="40" r="30" fill="none" stroke="#f59e0b" stroke-width="9" stroke-dasharray="20.3 168.2" stroke-dashoffset="-62.5" stroke-linecap="round" transform="rotate(-90 40 40)" opacity="0.85"/><circle cx="40" cy="40" r="30" fill="none" stroke="#3b82f6" stroke-width="9" stroke-dasharray="35.6 152.9" stroke-dashoffset="-88.4" stroke-linecap="round" transform="rotate(-90 40 40)" opacity="0.85"/><circle cx="40" cy="40" r="30" fill="none" stroke="#8b5cf6" stroke-width="9" stroke-dasharray="53.2 135.3" stroke-dashoffset="-129.7" stroke-linecap="round" transform="rotate(-90 40 40)" opacity="0.85"/><circle cx="40" cy="40" r="22.5" fill="none" stroke="rgba(255,255,255,0.05)" stroke-width="0.5"/><text x="40" y="41.5" text-anchor="middle" dominant-baseline="middle" fill="rgba(255,255,255,0.5)" font-size="9" font-weight="600" font-family="ui-monospace,monospace">34%</text><circle cx="40.0" cy="2.5" r="0.8" fill="rgba(255,255,255,0.15)"/><circle cx="58.8" cy="7.5" r="0.8" fill="rgba(255,255,255,0.15)"/><circle cx="72.5" cy="21.3" r="0.8" fill="rgba(255,255,255,0.15)"/><circle cx="77.5" cy="40.0" r="0.8" fill="rgba(255,255,255,0.15)"/><circle cx="72.5" cy="58.7" r="0.8" fill="rgba(255,255,255,0.15)"/><circle cx="58.8" cy="72.5" r="0.8" fill="rgba(255,255,255,0.15)"/><circle cx="40.0" cy="77.5" r="0.8" fill="rgba(255,255,255,0.15)"/><circle cx="21.2" cy="72.5" r="0.8" fill="rgba(255,255,255,0.15)"/><circle cx="7.5" cy="58.8" r="0.8" fill="rgba(255,255,255,0.15)"/><circle cx="2.5" cy="40.0" r="0.8" fill="rgba(255,255,255,0.15)"/><circle cx="7.5" cy="21.2" r="0.8" fill="rgba(255,255,255,0.15)"/><circle cx="21.2" cy="7.5" r="0.8" fill="rgba(255,255,255,0.15)"/></g></svg>