<svg viewBox="0 0 80 80" fill="none" xmlns="http://www.w3.org/2000/svg" width="40" height="40"><defs><clipPath id="vc645088871"><circle cx="40" cy="40" r="40"/></clipPath></defs><g clip-path="url(#vc645088871)"><rect width="80" height="80" fill="#141824"/><line x1="12" y1="12.0" x2="68" y2="12.0" stroke="rgba(255,255,255,0.06)" stroke-width="0.5"/><line x1="12" y1="26.0" x2="68" y2="26.0" stroke="rgba(255,255,255,0.06)" stroke-width="0.5"/><line x1="12" y1="40.0" x2="68" y2="40.0" stroke="rgba(255,255,255,0.06)" stroke-width="0.5"/><line x1="12" y1="54.0" x2="68" y2="54.0" stroke="rgba(255,255,255,0.06)" stroke-width="0.5"/><line x1="12" y1="68.0" x2="68" y2="68.0" stroke="rgba(255,255,255,0.06)" stroke-width="0.5"/><line x1="19.2" y1="32.9" x2="19.2" y2="39.8" stroke="#06b6d4" stroke-width="1" opacity="0.5"/><line x1="17.3" y1="32.9" x2="21.1" y2="32.9" stroke="#06b6d4" stroke-width="1" opacity="0.5"/><line x1="19.2" y1="57.6" x2="19.2" y2="64.5" stroke="#06b6d4" stroke-width="1" opacity="0.5"/><line x1="17.3" y1="64.5" x2="21.1" y2="64.5" stroke="#06b6d4" stroke-width="1" opacity="0.5"/><rect x="16.0" y="39.8" width="6.4" height="17.8" rx="2" fill="#06b6d4" opacity="0.3" stroke="#06b6d4" stroke-width="1" stroke-opacity="0.7"/><line x1="18.0" y1="53.4" x2="20.4" y2="53.4" stroke="#06b6d4" stroke-width="2" stroke-linecap="round" opacity="0.9"/><circle cx="14.7" cy="29.3" r="1.5" fill="#06b6d4" opacity="0.6"/><line x1="29.6" y1="13.7" x2="29.6" y2="32.9" stroke="#ec4899" stroke-width="1" opacity="0.5"/><line x1="27.7" y1="13.7" x2="31.5" y2="13.7" stroke="#ec4899" stroke-width="1" opacity="0.5"/><line x1="29.6" y1="62.7" x2="29.6" y2="66.3" stroke="#ec4899" stroke-width="1" opacity="0.5"/><line x1="27.7" y1="66.3" x2="31.5" y2="66.3" stroke="#ec4899" stroke-width="1" opacity="0.5"/><rect x="26.4" y="32.9" width="6.4" height="29.8" rx="2" fill="#ec4899" opacity="0.3" stroke="#ec4899" stroke-width="1" stroke-opacity="0.7"/><line x1="28.4" y1="35.1" x2="30.8" y2="35.1" stroke="#ec4899" stroke-width="2" stroke-linecap="round" opacity="0.9"/><line x1="40.0" y1="34.9" x2="40.0" y2="43.8" stroke="#8b5cf6" stroke-width="1" opacity="0.5"/><line x1="38.1" y1="34.9" x2="41.9" y2="34.9" stroke="#8b5cf6" stroke-width="1" opacity="0.5"/><line x1="40.0" y1="50.2" x2="40.0" y2="59.1" stroke="#8b5cf6" stroke-width="1" opacity="0.5"/><line x1="38.1" y1="59.1" x2="41.9" y2="59.1" stroke="#8b5cf6" stroke-width="1" opacity="0.5"/><rect x="36.8" y="43.8" width="6.4" height="6.4" rx="2" fill="#8b5cf6" opacity="0.3" stroke="#8b5cf6" stroke-width="1" stroke-opacity="0.7"/><line x1="38.8" y1="45.5" x2="41.2" y2="45.5" stroke="#8b5cf6" stroke-width="2" stroke-linecap="round" opacity="0.9"/><circle cx="31.0" cy="61.7" r="1.5" fill="#8b5cf6" opacity="0.6"/><circle cx="29.5" cy="31.9" r="1.5" fill="#8b5cf6" opacity="0.6"/><line x1="50.4" y1="20.9" x2="50.4" y2="30.9" stroke="#3b82f6" stroke-width="1" opacity="0.5"/><line x1="48.5" y1="20.9" x2="52.3" y2="20.9" stroke="#3b82f6" stroke-width="1" opacity="0.5"/><line x1="50.4" y1="61.4" x2="50.4" y2="66.3" stroke="#3b82f6" stroke-width="1" opacity="0.5"/><line x1="48.5" y1="66.3" x2="52.3" y2="66.3" stroke="#3b82f6" stroke-width="1" opacity="0.5"/><rect x="47.2" y="30.9" width="6.4" height="30.4" rx="2" fill="#3b82f6" opacity="0.3" stroke="#3b82f6" stroke-width="1" stroke-opacity="0.7"/><line x1="49.2" y1="50.7" x2="51.6" y2="50.7" stroke="#3b82f6" stroke-width="2" stroke-linecap="round" opacity="0.9"/><circle cx="41.4" cy="17.7" r="1.5" fill="#3b82f6" opacity="0.6"/><line x1="60.8" y1="26.1" x2="60.8" y2="37.7" stroke="#f59e0b" stroke-width="1" opacity="0.5"/><line x1="58.9" y1="26.1" x2="62.7" y2="26.1" stroke="#f59e0b" stroke-width="1" opacity="0.5"/><line x1="60.8" y1="52.9" x2="60.8" y2="64.5" stroke="#f59e0b" stroke-width="1" opacity="0.5"/><line x1="58.9" y1="64.5" x2="62.7" y2="64.5" stroke="#f59e0b" stroke-width="1" opacity="0.5"/><rect x="57.6" y="37.7" width="6.4" height="15.2" rx="2" fill="#f59e0b" opacity="0.3" stroke="#f59e0b" stroke-width="1" stroke-opacity="0.7"/><line x1="59.6" y1="44.6" x2="62.0" y2="44.6" stroke="#f59e0b" stroke-width="2" stroke-linecap="round" opacity="0.9"/><circle cx="53.3" cy="22.9" r="1.5" fill="#f59e0b" opacity="0.6"/><line x1="12" y1="68.0" x2="68.0" y2="68.0" stroke="rgba(255,255,255,0.1)" stroke-width="0.5"/><g opacity="0.85"><circle cx="40" cy="40" r="16" fill="rgba(255,255,255,0.06)"/><circle cx="28.0" cy="32.0" r="1.9" fill="rgba(255,255,255,0.45)"/><circle cx="52.0" cy="32.0" r="1.9" fill="rgba(255,255,255,0.45)"/><path d="M32.0 46.0 Q40 50.8 48.0 46.0" fill="none" stroke="rgba(255,255,255,0.45)" stroke-width="1.5" stroke-linecap="round"/></g></g></svg>