<svg viewBox="0 0 80 80" fill="none" xmlns="http://www.w3.org/2000/svg" width="40" height="40"><rect width="80" height="80" fill="#141824"/><rect x="5.0" y="5.0" width="19.0" height="49.5" rx="3" fill="#06b6d4" opacity="0.50"/><rect x="9.0" y="10.0" width="7.6" height="2" rx="1" fill="rgba(255,255,255,0.2)"/><rect x="9.0" y="15.0" width="4.5" height="1.5" rx="0.75" fill="rgba(255,255,255,0.1)"/><rect x="26.5" y="5.0" width="16.3" height="49.5" rx="3" fill="#ec4899" opacity="0.56"/><rect x="30.5" y="10.0" width="6.5" height="2" rx="1" fill="rgba(255,255,255,0.2)"/><rect x="30.5" y="15.0" width="3.9" height="1.5" rx="0.75" fill="rgba(255,255,255,0.1)"/><rect x="45.3" y="5.0" width="13.7" height="49.5" rx="3" fill="#8b5cf6" opacity="0.63"/><rect x="61.5" y="5.0" width="13.5" height="49.5" rx="3" fill="#3b82f6" opacity="0.69"/><rect x="5.0" y="57.0" width="8.4" height="19.3" rx="3" fill="#f59e0b" opacity="0.76"/><rect x="15.9" y="57.0" width="15.3" height="19.3" rx="3" fill="#06b6d4" opacity="0.82"/><rect x="19.9" y="62.0" width="6.1" height="2" rx="1" fill="rgba(255,255,255,0.2)"/><rect x="19.9" y="67.0" width="3.7" height="1.5" rx="0.75" fill="rgba(255,255,255,0.1)"/><rect x="33.7" y="57.0" width="41.3" height="19.3" rx="3" fill="#ec4899" opacity="0.89"/><rect x="37.7" y="62.0" width="16.0" height="2" rx="1" fill="rgba(255,255,255,0.2)"/><rect x="37.7" y="67.0" width="9.6" height="1.5" rx="0.75" fill="rgba(255,255,255,0.1)"/><rect x="4" y="4" width="72.0" height="72.0" rx="4" fill="none" stroke="rgba(255,255,255,0.08)" stroke-width="0.5"/></svg>