<svg viewBox="0 0 80 80" fill="none" xmlns="http://www.w3.org/2000/svg" width="40" height="40"><defs><clipPath id="vc645088871"><circle cx="40" cy="40" r="40"/></clipPath></defs><g clip-path="url(#vc645088871)"><rect width="80" height="80" fill="#141824"/><line x1="12" y1="12.0" x2="68" y2="12.0" stroke="rgba(255,255,255,0.05)" stroke-width="0.5"/><line x1="12" y1="30.7" x2="68" y2="30.7" stroke="rgba(255,255,255,0.05)" stroke-width="0.5"/><line x1="12" y1="49.3" x2="68" y2="49.3" stroke="rgba(255,255,255,0.05)" stroke-width="0.5"/><line x1="12" y1="68.0" x2="68" y2="68.0" stroke="rgba(255,255,255,0.05)" stroke-width="0.5"/><defs><linearGradient id="sg645088871" x1="0" y1="0" x2="0" y2="1"><stop offset="0%" stop-color="#06b6d4" stop-opacity="0.25"/><stop offset="100%" stop-color="#06b6d4" stop-opacity="0.02"/></linearGradient></defs><path d="M12,68 L12.0,14.8 L18.2,35.5 L24.4,14.8 L30.7,61.5 L36.9,38.7 L43.1,51.6 L49.3,24.3 L55.6,41.8 L61.8,54.8 L68.0,31.9 L68.0,68 Z" fill="url(#sg645088871)"/><path d="M12.0,14.8 L18.2,35.5 L24.4,14.8 L30.7,61.5 L36.9,38.7 L43.1,51.6 L49.3,24.3 L55.6,41.8 L61.8,54.8 L68.0,31.9 " fill="none" stroke="#06b6d4" stroke-width="1.8" stroke-linecap="round" stroke-linejoin="round" opacity="0.9"/><path d="M12.0,27.5 L18.2,41.8 L24.4,35.9 L30.7,56.0 L36.9,46.5 L43.1,57.5 L49.3,34.2 L55.6,47.9 L61.8,58.9 L68.0,43.3 " fill="none" stroke="#f59e0b" stroke-width="1" stroke-linecap="round" stroke-linejoin="round" opacity="0.35" stroke-dasharray="3,3"/><circle cx="68.0" cy="31.9" r="4" fill="#06b6d4" opacity="0.2"/><circle cx="68.0" cy="31.9" r="2" fill="#141824"/><circle cx="68.0" cy="31.9" r="1.5" fill="#06b6d4"/><circle cx="12.0" cy="14.8" r="1" fill="#06b6d4" opacity="0.5"/><g opacity="0.85"><circle cx="40" cy="40" r="16" fill="rgba(255,255,255,0.06)"/><circle cx="28.0" cy="32.0" r="1.9" fill="rgba(255,255,255,0.45)"/><circle cx="52.0" cy="32.0" r="1.9" fill="rgba(255,255,255,0.45)"/><path d="M32.0 46.0 Q40 50.8 48.0 46.0" fill="none" stroke="rgba(255,255,255,0.45)" stroke-width="1.5" stroke-linecap="round"/></g></g></svg>